# xmcd
#
# Track frame offsets:
#        150
#        17516
#        40136
#        60592
#        84129
#        114449
#        128754
#        154410
#        180886
#        198318
#        224646
#        250576
#
# Disc length: 3646 seconds
#
# Revision: 0
# Processed by: cddbd v1.5.1PL0 Copyright (c) Steve Scherf et al.
# Submitted via: ExactAudioCopy v0.95a5
#
DISCID=920e3c0c
DTITLE=KiLA - BL  the Best and Live in Dublin
DYEAR=1900
DGENRE=Celtic
TTITLE0=AnTiomanai
TTITLE1=Where did ya Hide That Train,Joe?
TTITLE2=On Taobh Tuathail Amach
TTITLE3=Epicy
TTITLE4=Ril A Do
TTITLE5=A Waltz to Eastern Heaven
TTITLE6=Tip Toe
TTITLE7=B'fheidir
TTITLE8=Mind the Gap
TTITLE9=Lemonade and Buns
TTITLE10=Tog E Go Bog E
TTITLE11=An Tiomanai ....tne Sakana remix
EXTD=
EXTT0=
EXTT1=
EXTT2=
EXTT3=
EXTT4=
EXTT5=
EXTT6=
EXTT7=
EXTT8=
EXTT9=
EXTT10=
EXTT11=
PLAYORDER=
